<?xml version="1.0" encoding="UTF-8"?>
<svg width="33px" height="27px" viewBox="0 0 33 27" version="1.1" xmlns="http://www.w3.org/2000/svg" xmlns:xlink="http://www.w3.org/1999/xlink">
    <!-- Generator: sketchtool 49.3 (51167) - http://www.bohemiancoding.com/sketch -->
    <title>C8EB13F1-D64D-4E3A-8C3D-12C9DAA61E0D</title>
    <desc>Created with sketchtool.</desc>
    <defs></defs>
    <g id="Page-1" stroke="none" stroke-width="1" fill="none" fill-rule="evenodd">
        <g id="clarivate-website_7.1.1_blog-article_author-profile-(desktop)" transform="translate(-275.000000, -845.000000)" stroke="#000000" stroke-width="2">
            <g id="icons/quotation-mark/black" transform="translate(276.000000, 847.000000)">
                <path d="M0.0250064079,16.2820503 C-0.353578207,11.0234911 3.55939071,3.58414055 12.2501346,0 L14.2107946,3.30742382 C8.44294666,6.27318718 6.5546631,12.0720028 6.5546631,12.0720028 C11.6943204,12.4833131 13.2105147,15.5149614 13.2105147,18.0091768 C13.2105147,21.3034237 10.5529991,24 7.20419553,24 C4.04561213,24 0.41101425,21.6422605 0.0250064079,16.2820503 Z M15.8142118,16.2820503 C15.4356272,11.0234911 19.3485961,3.58414055 28.03934,0 L30,3.30742382 C24.2321521,6.27318718 22.3438685,12.0720028 22.3438685,12.0720028 C27.4835258,12.4833131 28.9997201,15.5149614 28.9997201,18.0091768 C28.9997201,21.3034237 26.3422045,24 22.9934009,24 C19.8348175,24 16.2002196,21.6422605 15.8142118,16.2820503 Z" id="&quot;"></path>
            </g>
        </g>
    </g>
</svg>