<?xml version="1.0" encoding="UTF-8"?>
<svg width="177px" height="60px" viewBox="0 0 177 60" version="1.1" xmlns="http://www.w3.org/2000/svg" xmlns:xlink="http://www.w3.org/1999/xlink">
    <!-- Generator: sketchtool 49.3 (51167) - http://www.bohemiancoding.com/sketch -->
    <title>A19F65F3-2790-4C0F-AD08-2B681DE6B160</title>
    <desc>Created with sketchtool.</desc>
    <defs></defs>
    <g id="Page-1" stroke="none" stroke-width="1" fill="none" fill-rule="evenodd">
        <g id="clarivate-website_7.1.1_blog-article_author-profile-(desktop)" transform="translate(-50.000000, -45.000000)">
            <g id="Header" transform="translate(0.000000, 30.000000)">
                <g id="logo/clarivate" transform="translate(50.000000, 15.000000)">
                    <g id="logo">
                        <path d="M135.235869,51.6486393 C136.006525,52.5992951 137.163246,53.2927377 138.935705,53.2927377 C140.709148,53.2927377 141.479803,52.4192951 141.479803,51.777 C141.479803,50.9547049 140.554721,50.7491311 140.143574,50.671918 C139.706852,50.5691311 137.599967,50.1835574 137.13718,50.0551967 C134.079148,49.3356885 133.514066,47.5627377 133.514066,46.4060164 C133.514066,44.221918 135.49259,42.2178197 139.01341,42.2178197 C140.965869,42.2178197 142.379311,42.834541 143.253246,43.4512623 C143.895049,43.8624098 144.306689,44.2991311 144.56341,44.6074918 L142.379311,46.6376557 C142.019803,45.9437213 141.146361,44.6847049 138.884557,44.6847049 C137.419967,44.6847049 136.751607,45.327 136.751607,45.9953607 C136.751607,46.9204426 137.702754,47.1771639 139.346852,47.4599508 C142.019803,47.9483115 142.764885,48.0766721 143.586689,48.7189672 C144.383902,49.3356885 144.897836,50.3635574 144.897836,51.4425738 C144.897836,53.4466721 143.09882,55.8373279 139.116197,55.8373279 C136.82882,55.8373279 134.568,55.1178197 132.948984,53.5499508 L135.235869,51.6486393 Z M129.684885,47.1515902 C129.453246,46.3037213 128.553738,44.9674918 126.781279,44.9674918 C125.007836,44.9674918 123.594393,46.3809344 123.594393,48.9501148 C123.594393,51.2630656 124.802262,52.9588033 126.832426,52.9588033 C128.785377,52.9588033 129.530459,51.4686393 129.916033,50.4407705 L132.562426,51.8281475 C131.560623,54.6033934 129.016525,55.8373279 126.781279,55.8373279 C123.209311,55.8373279 120.408492,53.0876557 120.408492,49.0273279 C120.408492,45.0958525 123.234885,42.2178197 126.884066,42.2178197 C130.121607,42.2178197 131.765705,44.3758525 132.434557,45.867 L129.684885,47.1515902 Z M115.808164,55.4512623 L118.866197,55.4512623 L118.866197,42.6029016 L115.808164,42.6029016 L115.808164,55.4512623 Z M115.808164,40.5988033 L118.866197,40.5988033 L118.866197,37.489623 L115.808164,37.489623 L115.808164,40.5988033 Z M111.414393,44.8130656 L111.414393,50.6202787 C111.414393,52.2132295 111.414393,52.9076557 112.878984,52.9076557 C113.341279,52.9076557 113.726852,52.882082 114.163574,52.7532295 L114.163574,55.3484754 C113.238492,55.5029016 112.622262,55.5540492 111.927836,55.5540492 C111.285541,55.5540492 109.127016,55.5540492 108.535869,53.9866721 C108.330787,53.4727377 108.330787,52.6504426 108.330787,51.3658525 L108.330787,44.8130656 L106.455049,44.8130656 L106.455049,42.6029016 L108.330787,42.6029016 L108.330787,38.0547049 L111.414393,38.0547049 L111.414393,42.6029016 L114.163574,42.6029016 L114.163574,44.8130656 L111.414393,44.8130656 Z M105.862918,42.6029016 L102.599803,53.8071639 L101.880295,56.2224098 C101.006361,58.9204426 100.056197,59.8710984 97.665541,59.8710984 C96.6637377,59.8710984 96.175377,59.7688033 95.8158689,59.7166721 L95.8158689,57.0191311 C96.0986557,57.0702787 96.3302951,57.0958525 96.6386557,57.0958525 C96.8693115,57.0958525 97.5376721,57.0958525 98.0260328,56.761918 C98.385541,56.5307705 98.745541,55.9651967 98.745541,55.7084754 L94.0945574,42.6029016 L97.4093115,42.6029016 L100.261279,52.1881475 L102.70259,42.6029016 L105.862918,42.6029016 Z M89.8025902,55.4512623 L92.9117705,55.4512623 L92.9117705,37.3091311 L89.8025902,37.3091311 L89.8025902,55.4512623 Z M84.6888197,49.0529016 C84.0716066,49.3617541 83.3781639,49.5929016 81.9902951,49.8240492 C80.8852131,49.9784754 79.4211148,50.2351967 79.4211148,51.597 C79.4211148,52.5992951 80.2684918,53.1132295 81.5019344,53.1132295 C83.0698033,53.1132295 84.1748852,52.3937213 84.5088197,51.6225738 C84.6888197,51.2374918 84.6888197,50.851918 84.6888197,50.4663443 L84.6888197,49.0529016 Z M76.7481639,46.3809344 C76.7998033,45.7381475 76.8509508,45.1986393 77.2620984,44.4535574 C78.495541,42.2178197 81.5535738,42.2178197 82.3758689,42.2178197 C83.6088197,42.2178197 85.0999672,42.3717541 86.2301311,43.0401148 C87.7463607,43.9651967 87.7719344,45.1730656 87.7719344,46.5604426 L87.7719344,53.3699508 C87.7719344,54.3461803 87.7719344,54.6806066 88.3375082,55.4512623 L84.6888197,55.4512623 C84.6627541,55.1429016 84.6111148,54.629459 84.6111148,54.4489672 C83.9432459,55.014541 82.5814426,55.759623 80.8084918,55.759623 C77.9048852,55.759623 76.1570164,53.9610984 76.1570164,51.7509344 C76.1570164,51.1086393 76.3114426,50.5179836 76.5681639,50.0035574 C77.4932459,48.1538852 79.4717705,47.7427377 80.7052131,47.5110984 C83.3525902,46.9715902 83.5581639,46.9204426 84.6888197,46.5604426 C84.6888197,45.9181475 84.6371803,44.6074918 82.5042295,44.6074918 C81.2196393,44.6074918 80.5257049,45.0186393 80.2173443,45.4297869 C79.8834098,45.8409344 79.9089836,46.2004426 79.9089836,46.5604426 L76.7481639,46.3809344 Z M62.923082,42.6029016 L66.0322623,42.6029016 L66.0322623,44.1191311 C66.1866885,43.8879836 66.4950492,43.4768361 67.0345574,43.1168361 C67.8057049,42.5517541 68.9875082,42.2178197 69.9898033,42.2178197 C71.4543934,42.2178197 72.7134098,42.8861803 73.3561967,43.7591311 C74.1524262,44.8386393 74.1524262,46.2265082 74.1524262,47.8966721 L74.1524262,55.4512623 L71.0943934,55.4512623 L71.0943934,48.8989672 C71.0943934,47.9483115 71.0943934,47.3055246 70.9916066,46.9460164 C70.7093115,45.8153607 69.8865246,45.2242131 68.8847213,45.2242131 C67.8824262,45.2242131 66.9573443,45.8153607 66.5201311,46.6632295 C66.0322623,47.6138852 66.0322623,48.924541 66.0322623,49.8751967 L66.0322623,55.4512623 L62.923082,55.4512623 L62.923082,42.6029016 Z M55.7275082,48.9501148 L53.2345574,40.5988033 L50.7165246,48.9501148 L55.7275082,48.9501148 Z M56.6265246,51.9048689 L49.8170164,51.9048689 L48.7635738,55.4512623 L45.140459,55.4512623 L51.2560328,37.309623 L55.1102951,37.309623 L61.3035738,55.4512623 L57.680459,55.4512623 L56.6265246,51.9048689 Z M172.304557,20.2051967 C171.920459,17.4810984 170.244393,16.5388033 168.393246,16.5388033 C166.158492,16.5388033 164.622098,17.8302787 164.133246,20.2051967 L172.304557,20.2051967 Z M177.05341,27.2586393 C174.888492,30.1568361 172.094557,31.6932295 168.532918,31.6932295 C163.958656,31.6932295 159.558984,28.7950328 159.558984,22.3701148 C159.558984,16.5038852 163.330131,13.1861803 168.253574,13.1861803 C172.863246,13.1861803 174.783738,15.9447049 175.132918,16.4689672 C176.564557,18.4937213 176.87882,21.532082 176.913738,23.2779836 L163.993574,23.2779836 C164.482918,26.0365082 166.19341,27.6083115 168.952426,27.6083115 C171.815705,27.6083115 172.968,25.9317541 173.49177,25.1984754 L177.05341,27.2586393 Z M154.670459,16.7129016 L154.670459,24.6048689 C154.670459,26.7697869 154.670459,27.7130656 156.660295,27.7130656 C157.289311,27.7130656 157.813082,27.6781475 158.406689,27.5030656 L158.406689,31.0297869 C157.149639,31.2392951 156.311607,31.309623 155.36882,31.309623 C154.495377,31.309623 151.562262,31.309623 150.759148,29.1791311 C150.479803,28.4807705 150.479803,27.3633934 150.479803,25.6174918 L150.479803,16.7129016 L147.930787,16.7129016 L147.930787,13.7099508 L150.479803,13.7099508 L150.479803,7.52945902 L154.670459,7.52945902 L154.670459,13.7099508 L158.406689,13.7099508 L158.406689,16.7129016 L154.670459,16.7129016 Z M141.714885,22.4748689 C140.877344,22.8938852 139.934557,23.2081475 138.048492,23.5224098 C136.547016,23.731918 134.556689,24.0810984 134.556689,25.9317541 C134.556689,27.2935574 135.708984,27.991918 137.385049,27.991918 C139.515049,27.991918 141.016525,27.0142131 141.470951,25.9666721 C141.714885,25.4429016 141.714885,24.9191311 141.714885,24.3953607 L141.714885,22.4748689 Z M130.924721,18.8429016 C130.994557,17.9699508 131.064885,17.2371639 131.623574,16.2240492 C133.299148,13.1861803 137.454885,13.1861803 138.572262,13.1861803 C140.248328,13.1861803 142.274066,13.3956885 143.810459,14.3035574 C145.870623,15.5606066 145.905049,17.2017541 145.905049,19.0873279 L145.905049,28.3410984 C145.905049,29.6684754 145.905049,30.121918 146.673738,31.169459 L141.714885,31.169459 C141.680459,30.7504426 141.610623,30.052082 141.610623,29.8081475 C140.702262,30.5763443 138.852098,31.5884754 136.442262,31.5884754 C132.496525,31.5884754 130.122098,29.1447049 130.122098,26.1412623 C130.122098,25.2683115 130.331115,24.4651967 130.680295,23.7668361 C131.937836,21.2522459 134.626525,20.6940492 136.30259,20.3792951 C139.899148,19.6465082 140.178984,19.5766721 141.714885,19.0873279 C141.714885,18.2148689 141.645049,16.4335574 138.746852,16.4335574 C137.000951,16.4335574 136.058164,16.9922459 135.639148,17.5509344 C135.184721,18.109623 135.220131,18.5989672 135.220131,19.0873279 L130.924721,18.8429016 Z M129.87718,13.7099508 L124.150623,31.169459 L119.646197,31.169459 L113.988984,13.7099508 L118.319311,13.7099508 L121.950295,25.7222459 L125.512918,13.7099508 L129.87718,13.7099508 Z M107.423902,31.169459 L111.579148,31.169459 L111.579148,13.7099508 L107.423902,13.7099508 L107.423902,31.169459 Z M107.423902,10.9863443 L111.579148,10.9863443 L111.579148,6.7612623 L107.423902,6.7612623 L107.423902,10.9863443 Z M99.4271803,13.7099508 L99.4271803,16.1891311 C99.9514426,15.2812623 101.103738,13.2210984 105.014557,13.3258525 L105.014557,17.6207705 C104.106689,17.6556885 102.535377,17.6906066 101.24341,18.6688033 C99.4625902,20.0301148 99.4271803,21.8114262 99.4271803,24.709623 L99.4271803,31.169459 L95.3766885,31.169459 L95.3766885,13.7099508 L99.4271803,13.7099508 Z M87.7645574,22.4748689 C86.9265246,22.8938852 85.9837377,23.2081475 84.0981639,23.5224098 C82.5961967,23.731918 80.6058689,24.0810984 80.6058689,25.9317541 C80.6058689,27.2935574 81.7581639,27.991918 83.4342295,27.991918 C85.5642295,27.991918 87.0661967,27.0142131 87.5201311,25.9666721 C87.7645574,25.4429016 87.7645574,24.9191311 87.7645574,24.3953607 L87.7645574,22.4748689 Z M76.9739016,18.8429016 C77.0442295,17.9699508 77.1135738,17.2371639 77.6727541,16.2240492 C79.3483279,13.1861803 83.5045574,13.1861803 84.6214426,13.1861803 C86.2975082,13.1861803 88.3227541,13.3956885 89.8591475,14.3035574 C91.9198033,15.5606066 91.9547213,17.2017541 91.9547213,19.0873279 L91.9547213,28.3410984 C91.9547213,29.6684754 91.9547213,30.121918 92.722918,31.169459 L87.7645574,31.169459 C87.7291475,30.7504426 87.6598033,30.052082 87.6598033,29.8081475 C86.7514426,30.5763443 84.9007869,31.5884754 82.4914426,31.5884754 C78.5457049,31.5884754 76.1707869,29.1447049 76.1707869,26.1412623 C76.1707869,25.2683115 76.3802951,24.4651967 76.7294754,23.7668361 C77.9870164,21.2522459 80.6757049,20.6940492 82.3517705,20.3792951 C85.9483279,19.6465082 86.2281639,19.5766721 87.7645574,19.0873279 C87.7645574,18.2148689 87.6947213,16.4335574 84.7960328,16.4335574 C83.0501311,16.4335574 82.1078361,16.9922459 81.6883279,17.5509344 C81.2343934,18.109623 81.2693115,18.5989672 81.2693115,19.0873279 L76.9739016,18.8429016 Z M69.1517705,31.169459 L73.3773443,31.169459 L73.3773443,6.51634426 L69.1517705,6.51634426 L69.1517705,31.169459 Z M66.6725902,24.2906066 C66.3583279,25.0937213 65.7642295,26.5253607 64.5425902,27.991918 C62.7961967,30.0176557 60.0381639,31.7984754 56.0220984,31.7984754 C49.4919344,31.7984754 44.4986557,27.0142131 44.4986557,18.7735574 C44.4986557,10.3927377 49.9114426,5.88831148 56.1966885,5.88831148 C63.8786557,5.88831148 65.6948852,11.789459 66.253082,13.5004426 L61.6439016,14.7225738 C61.5745574,14.2691311 61.3645574,13.2210984 60.7365246,12.2783115 C60.2122623,11.5101148 58.8509508,10.1129016 56.3014426,10.1129016 C52.2858689,10.1129016 49.4919344,13.4306066 49.4919344,18.7037213 C49.4919344,24.3255246 52.4599672,27.4332295 56.3363607,27.4332295 C58.6409508,27.4332295 60.0381639,26.3158525 61.0502951,25.0238852 C61.8534098,23.9414262 62.1681639,23.0335574 62.3422623,22.4748689 L66.6725902,24.2906066 Z" id="Fill-1" fill="#000000"></path>
                        <path d="M28.5030492,18.1838852 C30.3861639,20.4506066 31.9097705,22.9509344 33.0458361,25.6150328 C28.0441967,30.8271639 21.5951803,34.6381475 14.3450164,36.4051967 C12.5838689,34.0514262 11.1900984,31.4748689 10.1907541,28.7468361 C20.4492787,27.0088033 26.161082,20.9433934 28.5030492,18.1838852" id="Fill-3" fill="#1AC604"></path>
                        <path d="M14.4977213,0.000147540984 C12.7144426,2.34359016 11.2965738,4.91178689 10.2741148,7.63440984 C18.7896885,9.15063934 24.5221475,13.4691639 28.5032951,18.184082 C30.3864098,15.9173607 31.9095246,13.4170328 33.046082,10.7529344 C28.0793607,5.57719672 21.685918,1.78342623 14.4977213,0.000147540984" id="Fill-5" fill="#6817FF"></path>
                        <path d="M1.48795082,28.9411475 C-0.477295082,21.937377 -0.538770492,14.7063934 1.56122951,7.41836066 C3.46942623,7.20098361 6.46155738,6.99934426 10.2740164,7.6347541 C7.47319672,15.1598361 7.94680328,22.6214754 10.1904098,28.7463934 C7.32467213,29.245082 4.21254098,29.2834426 1.48795082,28.9411475" id="Fill-7" fill="#000000"></path>
                    </g>
                </g>
            </g>
        </g>
    </g>
</svg>